HIERARCHY
ROOT Hips
{
	OFFSET 0.000000 8.830580 0.000000
	CHANNELS 6 Xposition Yposition Zposition Zrotation Yrotation Xrotation 
	JOINT Spine
	{
		OFFSET 0.000000 0.010000 0.000000
		CHANNELS 3 Zrotation Yrotation Xrotation
		JOINT Spine1
		{
			OFFSET 0.000000 2.459130 0.000000
			CHANNELS 3 Zrotation Yrotation Xrotation
			JOINT Neck
			{
				OFFSET 0.000000 2.484630 0.000000
				CHANNELS 3 Zrotation Yrotation Xrotation
				JOINT Head_virtual
				{
					OFFSET 0.000000 0.000000 0.000000
					CHANNELS 3 Zrotation Yrotation Xrotation
					JOINT Head
					{
						OFFSET 0.000000 0.927525 0.000000
						CHANNELS 3 Zrotation Yrotation Xrotation
						End Site
						{
							OFFSET 0.000000 0.000000 0.000000
						}
					}
				}
				JOINT LeftUpArm_virtual
				{
					OFFSET 0.000000 0.000000 0.000000
					CHANNELS 3 Zrotation Yrotation Xrotation
					JOINT LeftUpArm
					{
						OFFSET 1.248820 0.000000 0.000000
						CHANNELS 3 Zrotation Yrotation Xrotation
						JOINT LeftForeArm
						{
							OFFSET 2.597580 0.000000 0.000000
							CHANNELS 3 Zrotation Yrotation Xrotation
							JOINT LeftHand
							{
								OFFSET 2.455420 0.000000 0.000000
								CHANNELS 3 Zrotation Yrotation Xrotation
								End Site
								{
									OFFSET 0.000000 0.000000 0.000000
								}
							}
						}
					}
				}
				JOINT RightUpArm_virtual
				{
					OFFSET -0.000000 -0.000000 -0.000000
					CHANNELS 3 Zrotation Yrotation Xrotation
					JOINT RightUpArm
					{
						OFFSET -1.248820 -0.000000 -0.000000
						CHANNELS 3 Zrotation Yrotation Xrotation
						JOINT RightForeArm
						{
							OFFSET -2.597580 -0.000000 -0.000000
							CHANNELS 3 Zrotation Yrotation Xrotation
							JOINT RightHand
							{
								OFFSET -2.455420 -0.000000 -0.000000
								CHANNELS 3 Zrotation Yrotation Xrotation
								End Site
								{
									OFFSET 0.000000 0.000000 0.000000
								}
							}
						}
					}
				}
			}
		}
	}
	JOINT LeftUpLeg
	{
		OFFSET 1.271939 0.000000 0.000000
		CHANNELS 3 Zrotation Yrotation Xrotation
		JOINT LeftLowLeg
		{
			OFFSET 0.000000 -4.342910 0.000000
			CHANNELS 3 Zrotation Yrotation Xrotation
			JOINT LeftFoot
			{
				OFFSET 0.000000 -4.487670 0.000000
				CHANNELS 3 Zrotation Yrotation Xrotation
				JOINT LeftToeBase
				{
					OFFSET 0.000000 0.000000 1.515070
					CHANNELS 3 Zrotation Yrotation Xrotation
					End Site
					{
						OFFSET 0.000000 0.000000 0.000000
					}
				}
			}
		}
	}
	JOINT RightUpLeg
	{
		OFFSET -1.271939 0.000000 0.000000
		CHANNELS 3 Zrotation Yrotation Xrotation
		JOINT RightLowLeg
		{
			OFFSET 0.000000 -4.342910 0.000000
			CHANNELS 3 Zrotation Yrotation Xrotation
			JOINT RightFoot
			{
				OFFSET 0.000000 -4.487670 0.000000
				CHANNELS 3 Zrotation Yrotation Xrotation
				JOINT RightToeBase
				{
					OFFSET 0.000000 0.000000 1.515070
					CHANNELS 3 Zrotation Yrotation Xrotation
					End Site
					{
						OFFSET 0.000000 0.000000 0.000000
					}
				}
			}
		}
	}
}
MOTION
Frames: 17
Frame Time: 0.041667
-20.320958 8.901722 59.057486 177.431316 11.389912 176.264940 2.224262 1.085917 -13.827833 -8.369112 2.352388 13.404506 0.000000 0.000000 0.000000 17.695395 6.973094 22.705074 -14.000150 -3.943256 -81.405006 -23.053400 5.995700 7.635986 -48.464298 -6.790490 20.649700 0.000000 -18.940800 0.000000 11.053700 16.938000 -3.667380 38.103699 -6.926700 39.244995 34.727901 21.921000 -24.752014 0.000000 22.565201 0.000000 5.146510 -11.766900 -21.039200 -4.786371 -8.990875 3.119334 0.000000 0.000000 16.194401 -16.956854 12.106398 -8.013248 0.000000 0.000000 -20.337380 1.449267 11.601276 1.947603 0.000000 0.000000 19.556101 31.848270 -6.438539 -14.351139 0.000000 0.000000 -15.801107 
-20.321443 8.889442 59.045517 177.422551 11.522343 176.102995 1.980723 -0.031513 -14.761302 -5.248512 2.630517 15.192494 0.000000 0.000000 0.000000 12.537752 10.428797 21.134540 -9.809864 -8.146745 -81.048602 -25.212000 5.648200 6.987000 -47.776600 -6.504380 21.486500 0.000000 -19.185101 0.000000 9.033570 16.369101 -5.953570 29.826700 -7.352440 1.338013 48.819599 -0.126700 3.192993 0.000000 20.106400 0.000000 1.638430 -10.101900 -16.219900 -4.850480 -8.870408 3.420539 0.000000 0.000000 16.127001 -17.105952 11.982929 -8.434385 0.000000 0.000000 -20.241300 1.454780 11.604676 2.199573 0.000000 0.000000 19.529900 32.170848 -5.924353 -14.674320 0.000000 0.000000 -15.571635 
-20.321874 8.889140 59.047302 177.432778 11.662955 176.055833 2.027958 0.021592 -14.717701 -5.308914 2.618780 15.100345 0.000000 0.000000 0.000000 12.518670 10.334035 21.142375 -9.816861 -8.225571 -80.996066 -25.250000 5.697800 6.937012 -47.743198 -6.467230 21.393600 0.000000 -19.165600 0.000000 9.053780 16.351200 -5.798210 29.814501 -7.328100 1.088013 48.856400 -0.367336 3.457001 0.000000 19.942301 0.000000 1.655700 -10.071100 -16.021900 -4.844875 -8.761204 3.465839 0.000000 0.000000 16.136999 -17.119118 12.001656 -8.469956 0.000000 0.000000 -20.203470 1.469787 11.700847 2.207892 0.000000 0.000000 19.549601 32.150233 -5.900180 -14.652244 0.000000 0.000000 -15.544117 
-20.322612 8.888872 59.049680 177.447145 11.763972 176.025123 2.079974 0.090103 -14.651319 -5.387952 2.607291 14.972762 0.000000 0.000000 0.000000 12.595029 10.125563 21.150366 -9.915383 -8.260786 -80.974837 -25.267900 5.694250 6.920990 -47.703701 -6.425640 21.369699 0.000000 -19.160700 0.000000 9.079500 16.332701 -5.801780 29.857500 -7.320980 1.075989 48.837101 -0.463128 3.532013 0.000000 19.815901 0.000000 1.728480 -10.054200 -15.806200 -4.841667 -8.737203 3.468650 0.000000 0.000000 16.193399 -17.157148 12.041634 -8.522578 0.000000 0.000000 -20.198490 1.480059 11.753371 2.200141 0.000000 0.000000 19.571199 32.102248 -5.885701 -14.620074 0.000000 0.000000 -15.529762 
-20.323077 8.888360 59.052963 177.444680 11.900351 175.982589 2.111230 0.149608 -14.578651 -5.437592 2.613578 14.885542 0.000000 0.000000 0.000000 12.566517 10.058691 21.075550 -9.900640 -8.316865 -80.949959 -25.287300 5.730710 6.902008 -47.669300 -6.438970 21.355700 0.000000 -19.160400 0.000000 9.046430 16.317400 -5.710900 29.884899 -7.288200 1.058990 48.827999 -0.530593 3.619995 0.000000 19.681801 0.000000 1.757690 -10.191300 -15.894700 -4.847026 -8.652228 3.483289 0.000000 0.000000 16.232500 -17.183383 12.067314 -8.559924 0.000000 0.000000 -20.197930 1.480819 11.847095 2.175706 0.000000 0.000000 19.624901 32.123295 -5.823896 -14.609673 0.000000 0.000000 -15.537489 
-20.323654 8.887836 59.056341 177.444121 12.029071 175.959765 2.138330 0.206300 -14.512396 -5.465588 2.625169 14.795281 0.000000 0.000000 0.000000 12.600490 9.887955 21.025702 -9.982562 -8.369597 -80.955315 -25.313101 5.753950 6.848999 -47.633202 -6.418870 21.426800 0.000000 -19.160900 0.000000 9.055090 16.229700 -5.386950 29.922899 -7.276580 1.050995 48.792599 -0.608472 3.622009 0.000000 19.582399 0.000000 1.864670 -10.075000 -15.730500 -4.848904 -8.584431 3.474795 0.000000 0.000000 16.277300 -17.210357 12.096692 -8.602208 0.000000 0.000000 -20.174800 1.477311 11.928036 2.123777 0.000000 0.000000 19.694599 32.142914 -5.761413 -14.601384 0.000000 0.000000 -15.509695 
-20.324096 8.887313 59.059826 177.434717 12.137921 175.945773 2.155855 0.252143 -14.450243 -5.486489 2.633131 14.694063 0.000000 0.000000 0.000000 12.684106 9.655165 21.007543 -10.115587 -8.406503 -80.953852 -25.344601 5.747770 6.808990 -47.579498 -6.373080 21.514099 0.000000 -19.169201 0.000000 9.017260 16.167700 -5.302420 29.947901 -7.323230 1.084991 48.780102 -0.576277 3.661987 0.000000 19.451300 0.000000 1.887610 -10.134500 -15.904200 -4.849948 -8.492746 3.456305 0.000000 0.000000 16.312000 -17.226241 12.098139 -8.619344 0.000000 0.000000 -20.208480 1.466846 12.014865 2.058841 0.000000 0.000000 19.776199 32.119234 -5.737945 -14.598557 0.000000 0.000000 -15.538852 
-20.325768 8.887287 59.062482 177.386923 12.228548 175.947897 2.158692 0.293643 -14.457394 -5.519277 2.655142 14.651581 0.000000 0.000000 0.000000 12.667847 9.579966 20.990290 -10.066408 -8.475243 -80.930439 -25.369200 5.708450 6.792999 -47.539600 -6.331710 21.603800 0.000000 -19.183800 0.000000 9.032660 16.141001 -5.147900 29.972099 -7.314450 1.088989 48.755001 -0.585835 3.712006 0.000000 19.301300 0.000000 1.888350 -10.254800 -16.005301 -5.064632 -9.328405 3.548547 0.000000 0.000000 16.155199 -17.542184 12.851057 -8.845065 0.000000 0.000000 -20.122580 1.390956 12.029802 1.968711 0.000000 0.000000 19.867001 32.106727 -5.631870 -14.586760 0.000000 0.000000 -15.528034 
-20.325547 8.885653 59.066669 177.411416 12.277339 175.905723 2.171041 0.301696 -14.401204 -5.491878 2.658879 14.649824 0.000000 0.000000 0.000000 12.721479 9.389274 20.930162 -10.108313 -8.499760 -80.857599 -25.346001 5.666960 6.790009 -47.550098 -6.335100 21.694099 0.000000 -19.198400 0.000000 9.055310 16.115101 -4.978240 29.946400 -7.316790 1.109009 48.785900 -0.588452 3.772003 0.000000 19.258600 0.000000 1.925570 -10.253800 -15.916900 -4.920331 -8.640181 3.378819 0.000000 0.000000 16.497400 -17.629262 12.183544 -8.825925 0.000000 0.000000 -20.163160 1.424217 12.058862 1.914614 0.000000 0.000000 20.010500 32.042248 -5.624435 -14.603458 0.000000 0.000000 -15.554996 
-20.325135 8.884158 59.070664 177.396208 12.345213 175.915272 2.154593 0.298982 -14.380500 -5.468671 2.663139 14.596114 0.000000 0.000000 0.000000 12.786590 9.249950 21.052756 -10.158720 -8.548794 -80.863410 -25.370800 5.665750 6.821991 -47.498501 -6.343130 21.759899 0.000000 -19.228500 0.000000 9.007420 16.086100 -5.089600 29.970900 -7.300400 1.162994 48.755402 -0.556601 3.868988 0.000000 19.162399 0.000000 1.911300 -10.321300 -15.981800 -4.920208 -8.590161 3.275160 0.000000 0.000000 16.644300 -17.479843 12.260250 -8.849186 0.000000 0.000000 -20.181750 1.408540 12.119697 1.768275 0.000000 0.000000 20.218399 32.021007 -5.583320 -14.653665 0.000000 0.000000 -15.577367 
-20.325609 8.883574 59.073245 177.317471 12.430643 175.962375 2.116253 0.320659 -14.481432 -5.467930 2.717741 14.641135 0.000000 0.000000 0.000000 12.887453 9.078465 21.261730 -10.153034 -8.612790 -80.887652 -25.436600 5.604430 6.863007 -47.396198 -6.344650 21.754900 0.000000 -19.265301 0.000000 8.921850 16.070200 -5.184070 30.045000 -7.287580 1.203003 48.679798 -0.517193 3.885986 0.000000 19.099600 0.000000 2.023760 -10.208100 -15.943100 -5.074130 -9.087078 3.307891 0.000000 0.000000 16.474701 -17.404994 12.817913 -8.894994 0.000000 0.000000 -20.186790 1.297508 12.120073 1.554028 0.000000 0.000000 20.460300 31.999242 -5.447821 -14.680089 0.000000 0.000000 -15.602012 
-20.325402 8.882431 59.074837 177.264516 12.497235 176.062930 2.116149 0.356887 -14.626990 -5.526594 2.739977 14.623390 0.000000 0.000000 0.000000 13.089739 8.789628 21.611553 -10.172018 -8.658072 -80.864701 -25.428400 5.539250 6.898987 -47.336300 -6.290320 21.851000 0.000000 -19.283400 0.000000 8.876710 16.066900 -5.243930 30.125900 -7.265030 1.399994 48.645000 -0.370155 3.781006 0.000000 18.974001 0.000000 2.028350 -10.352200 -15.882000 -5.033529 -8.716546 3.207352 0.000000 0.000000 16.404100 -17.522598 12.441547 -8.825656 0.000000 0.000000 -20.166860 1.195581 12.026851 1.330448 0.000000 0.000000 20.631001 31.996590 -5.255004 -14.690426 0.000000 0.000000 -15.553766 
-20.325452 8.881674 59.077828 177.237509 12.518585 176.234058 2.168823 0.410655 -14.804989 -5.652833 2.725111 14.574246 0.000000 0.000000 0.000000 13.400074 8.360940 22.224482 -10.248966 -8.756335 -80.941554 -25.425600 5.425890 6.794006 -47.207401 -6.073980 22.116100 0.000000 -19.342400 0.000000 8.778990 15.968900 -5.332050 30.296700 -7.250650 1.412994 48.543301 -0.257500 3.666992 0.000000 18.619900 0.000000 2.243830 -10.171200 -16.002100 -4.977647 -8.478281 3.031641 0.000000 0.000000 16.339500 -17.517206 12.208460 -8.745786 0.000000 0.000000 -20.176440 1.091843 11.841158 1.079320 0.000000 0.000000 20.706200 31.897821 -5.095818 -14.621571 0.000000 0.000000 -15.585035 
-20.326166 8.880153 59.086492 177.203022 12.507191 176.621996 2.216547 0.463760 -14.940101 -5.803376 2.659664 14.240062 0.000000 0.000000 0.000000 13.754360 7.825478 22.973722 -10.436878 -8.894993 -81.021465 -25.517401 5.419590 6.371002 -46.930099 -5.646120 22.714800 0.000000 -19.438101 0.000000 8.593670 15.805600 -5.167460 30.534300 -7.175140 0.760986 48.395302 -0.687342 3.860992 0.000000 18.116899 0.000000 2.634690 -10.173300 -16.553200 -4.889002 -8.270848 2.559367 0.000000 0.000000 16.351999 -17.511167 11.957832 -8.679344 0.000000 0.000000 -20.131380 0.937999 11.651456 0.561781 0.000000 0.000000 20.809900 31.900195 -4.889727 -14.590874 0.000000 0.000000 -15.592600 
-20.328537 8.877843 59.105010 177.173694 12.508037 177.154954 2.250150 0.529460 -14.823547 -5.903809 2.552562 13.517867 0.000000 0.000000 0.000000 14.150950 7.057342 23.688383 -10.736466 -9.040182 -80.871532 -25.663200 5.418090 5.529999 -46.604301 -4.826140 23.778000 0.000000 -19.605101 0.000000 8.608800 15.598700 -4.536390 30.685301 -7.084220 -0.321014 48.302898 -1.362340 4.260010 0.000000 17.334200 0.000000 3.441190 -10.348200 -16.556200 -4.799967 -8.252943 1.806161 0.000000 0.000000 16.530100 -17.479187 11.901599 -8.677020 0.000000 0.000000 -20.146180 0.759343 11.524926 -0.207946 0.000000 0.000000 20.996901 31.937591 -4.696752 -14.580941 0.000000 0.000000 -15.558873 
-20.333551 8.876454 59.134472 177.162029 12.561193 177.836044 2.237452 0.582283 -14.408860 -5.817035 2.448166 12.532825 0.000000 0.000000 0.000000 14.379117 6.419810 24.160455 -10.951419 -9.261396 -80.765021 -25.882000 5.478350 4.820007 -46.261101 -4.169650 24.899700 0.000000 -19.820200 0.000000 8.744060 15.368500 -4.779180 30.601900 -6.647790 -1.701996 48.332699 -2.485120 4.325012 0.000000 16.532000 0.000000 4.203520 -10.766800 -15.817100 -4.649461 -8.134240 0.793641 0.000000 0.000000 16.796000 -17.492905 11.746101 -8.645893 0.000000 0.000000 -20.131130 0.550884 11.398964 -1.224497 0.000000 0.000000 21.214199 31.988325 -4.490693 -14.484433 0.000000 0.000000 -15.568629 
-20.339944 8.876603 59.175619 177.252443 12.727086 178.680591 2.270863 0.661130 -13.805037 -5.596858 2.359417 11.533111 0.000000 0.000000 0.000000 14.610538 5.681816 24.217565 -11.274298 -9.449151 -80.827576 -25.959600 5.521080 4.385010 -46.100300 -3.781330 25.975901 0.000000 -20.113501 0.000000 9.003310 14.870600 -4.290130 30.455601 -6.894410 -0.924011 48.289600 -0.843600 3.886993 0.000000 15.329600 0.000000 4.331260 -11.627100 -15.047700 -4.309465 -7.421653 -0.554408 0.000000 0.000000 17.291000 -17.344254 11.213907 -8.508923 0.000000 0.000000 -20.126940 0.392482 11.255836 -2.416783 0.000000 0.000000 21.284800 32.015754 -4.256082 -14.191352 0.000000 0.000000 -15.547880 
